<svg width="24" height="24" viewBox="0 0 24 24" fill="none" xmlns="http://www.w3.org/2000/svg">
  <path d="M20.2824 12.2067C20.2824 11.5282 20.2235 10.8725 20.1166 10.2396H12V13.4554H16.6958C16.4991 14.505 15.915 15.3803 15.0399 15.9689V18.2804H17.9577C19.5292 16.8418 20.2824 14.7281 20.2824 12.2067Z" fill="#4285F4"/>
  <path d="M12 20.9996C14.43 20.9996 16.4674 20.1916 17.9577 18.2804L15.0399 15.9689C14.301 16.4708 13.302 16.7705 12 16.7705C9.39616 16.7705 7.19072 15.0396 6.51468 12.71H3.5166V15.0918C5.04604 18.5741 8.30364 20.9996 12 20.9996Z" fill="#34A853"/>
  <path d="M6.51468 12.7101C6.33812 12.2081 6.24072 11.6664 6.24072 11.1051C6.24072 10.5437 6.34724 10.002 6.51468 9.50007V7.11823H3.5166C2.94168 8.29409 2.6084 9.6165 2.6084 11.1051C2.6084 12.5936 2.94168 13.916 3.5166 15.0919L6.51468 12.7101Z" fill="#FBBC05"/>
  <path d="M12 5.42724C13.3272 5.42724 14.5099 5.89843 15.4401 6.77763L18.022 4.19571C16.4583 2.73716 14.4209 1.9209 12 1.9209C8.30364 1.9209 5.04604 4.34639 3.5166 7.8287L6.51468 10.2105C7.19072 7.88093 9.39616 5.42724 12 5.42724Z" fill="#EA4335"/>
</svg> 